#Comment line ignore any data following # character 
#Hierarchical Translation and Rotation (.htr) file 
[Header]	
#Header keywords are followed by a single value 
FileType HTR		#Single word string
DataType HTRS		#Translation followed by rotation and scale data
FileVersion 1		#integer
NumSegments 84		#integer
NumFrames 2		#integer
DataFrameRate 30		#integer, data frame rate in this file
EulerRotationOrder ZYX
CalibrationUnits mm
RotationUnits Degrees
GlobalAxisofGravity Y
BoneLengthAxis Y
ScaleFactor 1.00
[SegmentNames&Hierarchy]
#CHILD	PARENT
MASTER GLOBAL
root MASTER
chest root
L_mid_tent01 root
R_mid_tent01 root
spine01 root
Bip01_Neck chest
L_humerus chest
R_humerus chest
weapon_bone chest
Bip01_Head Bip01_Neck
eye_left_bone Bip01_Head
eye_right_bone Bip01_Head
L_forearm L_humerus
L_front_hand L_forearm
L_weapon_bone L_forearm
L_front_hand01_01 L_front_hand
L_front_hand02_01 L_front_hand
L_front_hand03_01 L_front_hand
L_front_hand01_02 L_front_hand01_01
L_front_hand02_02 L_front_hand02_01
L_front_hand03_02 L_front_hand03_01
R_forearm R_humerus
R_front_hand R_forearm
R_weapon_bone R_forearm
R_front_hand01_01 R_front_hand
R_front_hand02_01 R_front_hand
R_front_hand03_01 R_front_hand
R_front_hand01_02 R_front_hand01_01
R_front_hand02_02 R_front_hand02_01
R_front_hand03_02 R_front_hand03_01
null_rope01_connect L_mid_tent01
Rope1_Seg01 null_rope01_connect
Rope1_Seg02 Rope1_Seg01
Rope1_Seg03 Rope1_Seg02
Rope1_Seg04 Rope1_Seg03
Rope1_Seg05 Rope1_Seg04
Rope1_Seg06 Rope1_Seg05
Rope1_Seg07 Rope1_Seg06
Rope1_Seg09 Rope1_Seg07
L_mid_hand01 Rope1_Seg09
L_mid_hand02 Rope1_Seg09
L_mid_hand03 Rope1_Seg09
null_rope02_connect R_mid_tent01
Rope2_Seg01 null_rope02_connect
Rope2_Seg02 Rope2_Seg01
Rope2_Seg03 Rope2_Seg02
Rope2_Seg04 Rope2_Seg03
Rope2_Seg05 Rope2_Seg04
Rope2_Seg06 Rope2_Seg05
Rope2_Seg07 Rope2_Seg06
Rope2_Seg09 Rope2_Seg07
R_mid_hand01 Rope2_Seg09
R_mid_hand02 Rope2_Seg09
R_mid_hand03 Rope2_Seg09
spine02 spine01
spine03 spine02
pelvis spine03
null_rope03_connect pelvis
null_rope04_connect pelvis
Rope3_Seg01 null_rope03_connect
Rope3_Seg02 Rope3_Seg01
Rope3_Seg03 Rope3_Seg02
Rope3_Seg04 Rope3_Seg03
Rope3_Seg05 Rope3_Seg04
Rope3_Seg06 Rope3_Seg05
Rope3_Seg07 Rope3_Seg06
Rope3_Seg08 Rope3_Seg07
Rope3_Seg09 Rope3_Seg08
R_rear_hand01 Rope3_Seg09
R_rear_hand02 Rope3_Seg09
R_rear_hand03 Rope3_Seg09
Rope4_Seg01 null_rope04_connect
Rope4_Seg02 Rope4_Seg01
Rope4_Seg03 Rope4_Seg02
Rope4_Seg04 Rope4_Seg03
Rope4_Seg05 Rope4_Seg04
Rope4_Seg06 Rope4_Seg05
Rope4_Seg07 Rope4_Seg06
Rope4_Seg08 Rope4_Seg07
Rope4_Seg09 Rope4_Seg08
L_rear_hand01 Rope4_Seg09
L_rear_hand02 Rope4_Seg09
L_rear_hand03 Rope4_Seg09
[BasePosition]
#SegmentName Tx, Ty, Tz, Rx, Ry, Rz, BoneLength
MASTER 0.000000 0.000000 0.000000 -90.000000 0.000000 0.000000 10.000000 
root 0.000000 0.000000 0.000000 0.000000 0.000000 0.000000 10.000000 
chest 0.000000 0.000000 0.000000 0.000000 0.000000 0.000000 10.000000 
L_mid_tent01 0.000000 0.000000 0.000000 0.000000 0.000000 0.000000 10.000000 
R_mid_tent01 0.000000 0.000000 0.000000 0.000000 0.000000 0.000000 10.000000 
spine01 0.000000 0.000000 0.000000 0.000000 0.000000 0.000000 10.000000 
Bip01_Neck 0.000000 0.000000 0.000000 0.000000 0.000000 0.000000 10.000000 
L_humerus 0.000000 0.000000 0.000000 0.000000 0.000000 0.000000 10.000000 
R_humerus 0.000000 0.000000 0.000000 0.000000 0.000000 0.000000 10.000000 
weapon_bone 0.000000 0.000000 0.000000 0.000000 0.000000 0.000000 10.000000 
Bip01_Head 0.000000 0.000000 0.000000 0.000000 0.000000 0.000000 10.000000 
eye_left_bone 0.000000 0.000000 0.000000 0.000000 0.000000 0.000000 10.000000 
eye_right_bone 0.000000 0.000000 0.000000 0.000000 0.000000 0.000000 10.000000 
L_forearm 0.000000 0.000000 0.000000 0.000000 0.000000 0.000000 10.000000 
L_front_hand 0.000000 0.000000 0.000000 0.000000 0.000000 0.000000 10.000000 
L_weapon_bone 0.000000 0.000000 0.000000 0.000000 0.000000 0.000000 10.000000 
L_front_hand01_01 0.000000 0.000000 0.000000 0.000000 0.000000 0.000000 10.000000 
L_front_hand02_01 0.000000 0.000000 0.000000 0.000000 0.000000 0.000000 10.000000 
L_front_hand03_01 0.000000 0.000000 0.000000 0.000000 0.000000 0.000000 10.000000 
L_front_hand01_02 0.000000 0.000000 0.000000 0.000000 0.000000 0.000000 10.000000 
L_front_hand02_02 0.000000 0.000000 0.000000 0.000000 0.000000 0.000000 10.000000 
L_front_hand03_02 0.000000 0.000000 0.000000 0.000000 0.000000 0.000000 10.000000 
R_forearm 0.000000 0.000000 0.000000 0.000000 0.000000 0.000000 10.000000 
R_front_hand 0.000000 0.000000 0.000000 0.000000 0.000000 0.000000 10.000000 
R_weapon_bone 0.000000 0.000000 0.000000 0.000000 0.000000 0.000000 10.000000 
R_front_hand01_01 0.000000 0.000000 0.000000 0.000000 0.000000 0.000000 10.000000 
R_front_hand02_01 0.000000 0.000000 0.000000 0.000000 0.000000 0.000000 10.000000 
R_front_hand03_01 0.000000 0.000000 0.000000 0.000000 0.000000 0.000000 10.000000 
R_front_hand01_02 0.000000 0.000000 0.000000 0.000000 0.000000 0.000000 10.000000 
R_front_hand02_02 0.000000 0.000000 0.000000 0.000000 0.000000 0.000000 10.000000 
R_front_hand03_02 0.000000 0.000000 0.000000 0.000000 0.000000 0.000000 10.000000 
null_rope01_connect 0.000000 0.000000 0.000000 0.000000 0.000000 0.000000 10.000000 
Rope1_Seg01 0.000000 0.000000 0.000000 0.000000 0.000000 0.000000 10.000000 
Rope1_Seg02 0.000000 0.000000 0.000000 0.000000 0.000000 0.000000 10.000000 
Rope1_Seg03 0.000000 0.000000 0.000000 0.000000 0.000000 0.000000 10.000000 
Rope1_Seg04 0.000000 0.000000 0.000000 0.000000 0.000000 0.000000 10.000000 
Rope1_Seg05 0.000000 0.000000 0.000000 0.000000 0.000000 0.000000 10.000000 
Rope1_Seg06 0.000000 0.000000 0.000000 0.000000 0.000000 0.000000 10.000000 
Rope1_Seg07 0.000000 0.000000 0.000000 0.000000 0.000000 0.000000 10.000000 
Rope1_Seg09 0.000000 0.000000 0.000000 0.000000 0.000000 0.000000 10.000000 
L_mid_hand01 0.000000 0.000000 0.000000 0.000000 0.000000 0.000000 10.000000 
L_mid_hand02 0.000000 0.000000 0.000000 0.000000 0.000000 0.000000 10.000000 
L_mid_hand03 0.000000 0.000000 0.000000 0.000000 0.000000 0.000000 10.000000 
null_rope02_connect 0.000000 0.000000 0.000000 0.000000 0.000000 0.000000 10.000000 
Rope2_Seg01 0.000000 0.000000 0.000000 0.000000 0.000000 0.000000 10.000000 
Rope2_Seg02 0.000000 0.000000 0.000000 0.000000 0.000000 0.000000 10.000000 
Rope2_Seg03 0.000000 0.000000 0.000000 0.000000 0.000000 0.000000 10.000000 
Rope2_Seg04 0.000000 0.000000 0.000000 0.000000 0.000000 0.000000 10.000000 
Rope2_Seg05 0.000000 0.000000 0.000000 0.000000 0.000000 0.000000 10.000000 
Rope2_Seg06 0.000000 0.000000 0.000000 0.000000 0.000000 0.000000 10.000000 
Rope2_Seg07 0.000000 0.000000 0.000000 0.000000 0.000000 0.000000 10.000000 
Rope2_Seg09 0.000000 0.000000 0.000000 0.000000 0.000000 0.000000 10.000000 
R_mid_hand01 0.000000 0.000000 0.000000 0.000000 0.000000 0.000000 10.000000 
R_mid_hand02 0.000000 0.000000 0.000000 0.000000 0.000000 0.000000 10.000000 
R_mid_hand03 0.000000 0.000000 0.000000 0.000000 0.000000 0.000000 10.000000 
spine02 0.000000 0.000000 0.000000 0.000000 0.000000 0.000000 10.000000 
spine03 0.000000 0.000000 0.000000 0.000000 0.000000 0.000000 10.000000 
pelvis 0.000000 0.000000 0.000000 0.000000 0.000000 0.000000 10.000000 
null_rope03_connect 0.000000 0.000000 0.000000 0.000000 0.000000 0.000000 10.000000 
null_rope04_connect 0.000000 0.000000 0.000000 0.000000 0.000000 0.000000 10.000000 
Rope3_Seg01 0.000000 0.000000 0.000000 0.000000 0.000000 0.000000 10.000000 
Rope3_Seg02 0.000000 0.000000 0.000000 0.000000 0.000000 0.000000 10.000000 
Rope3_Seg03 0.000000 0.000000 0.000000 0.000000 0.000000 0.000000 10.000000 
Rope3_Seg04 0.000000 0.000000 0.000000 0.000000 0.000000 0.000000 10.000000 
Rope3_Seg05 0.000000 0.000000 0.000000 0.000000 0.000000 0.000000 10.000000 
Rope3_Seg06 0.000000 0.000000 0.000000 0.000000 0.000000 0.000000 10.000000 
Rope3_Seg07 0.000000 0.000000 0.000000 0.000000 0.000000 0.000000 10.000000 
Rope3_Seg08 0.000000 0.000000 0.000000 0.000000 0.000000 0.000000 10.000000 
Rope3_Seg09 0.000000 0.000000 0.000000 0.000000 0.000000 0.000000 10.000000 
R_rear_hand01 0.000000 0.000000 0.000000 0.000000 0.000000 0.000000 10.000000 
R_rear_hand02 0.000000 0.000000 0.000000 0.000000 0.000000 0.000000 10.000000 
R_rear_hand03 0.000000 0.000000 0.000000 0.000000 0.000000 0.000000 10.000000 
Rope4_Seg01 0.000000 0.000000 0.000000 0.000000 0.000000 0.000000 10.000000 
Rope4_Seg02 0.000000 0.000000 0.000000 0.000000 0.000000 0.000000 10.000000 
Rope4_Seg03 0.000000 0.000000 0.000000 0.000000 0.000000 0.000000 10.000000 
Rope4_Seg04 0.000000 0.000000 0.000000 0.000000 0.000000 0.000000 10.000000 
Rope4_Seg05 0.000000 0.000000 0.000000 0.000000 0.000000 0.000000 10.000000 
Rope4_Seg06 0.000000 0.000000 0.000000 0.000000 0.000000 0.000000 10.000000 
Rope4_Seg07 0.000000 0.000000 0.000000 0.000000 0.000000 0.000000 10.000000 
Rope4_Seg08 0.000000 0.000000 0.000000 0.000000 0.000000 0.000000 10.000000 
Rope4_Seg09 0.000000 0.000000 0.000000 0.000000 0.000000 0.000000 10.000000 
L_rear_hand01 0.000000 0.000000 0.000000 0.000000 0.000000 0.000000 10.000000 
L_rear_hand02 0.000000 0.000000 0.000000 0.000000 0.000000 0.000000 10.000000 
L_rear_hand03 0.000000 0.000000 0.000000 0.000000 0.000000 0.000000 10.000000 
#Beginning of Data. Separated by tabs
#Fr	Tx	Ty	Tz	Rx	Ry	Rz	SF
[MASTER]
19 0.000000 0.000000 0.000000 0.001660 0.001660 0.001660 0.000000
20 0.000000 0.000000 0.000000 0.001660 0.001660 0.001660 0.000000
[root]
19 -39.547451 -62.701412 1473.669434 -91.818604 -24.076813 -90.277992 1475.532837
20 -32.276966 -62.710793 1481.494385 -91.799431 -24.513992 -90.262901 1483.172241
[chest]
19 -84.512650 -34.090519 0.000000 -5.244013 -0.245636 -179.381454 91.129311
20 -84.512650 -34.090519 0.000000 -5.302519 -0.119478 -179.550537 91.129311
[L_mid_tent01]
19 27.304512 22.174606 -249.949768 -1.164610 36.680836 73.230759 252.412628
20 27.299576 22.177427 -249.917984 2.100555 36.459290 78.496979 252.380859
[R_mid_tent01]
19 23.228794 24.509907 226.238495 172.473328 -41.280407 74.055870 228.744751
20 23.228794 24.509907 226.238495 168.217484 -43.736088 79.017677 228.744751
[spine01]
19 -0.361383 -0.195265 0.000000 0.534265 0.433377 14.234630 0.410763
20 -0.361383 -0.195265 0.000000 0.597898 0.434080 14.514110 0.410763
[Bip01_Neck]
19 165.484543 71.581718 0.000119 175.896118 1.177290 24.871183 180.302734
20 165.484543 71.581718 0.000119 175.896118 1.177290 24.871183 180.302734
[L_humerus]
19 -13.983130 -135.272980 -120.471481 -178.810715 -1.565553 -86.382599 181.680161
20 -13.983130 -135.272980 -120.471481 -179.097214 -3.290127 -85.841797 181.680161
[R_humerus]
19 -13.983309 -135.273102 125.287651 -177.927048 -1.023230 -88.291855 184.909012
20 -13.983309 -135.273102 125.287651 -177.927048 -1.023230 -88.291855 184.909012
[weapon_bone]
19 235.964890 -300.705902 0.000000 0.000000 -89.951546 -128.212341 382.234833
20 235.964890 -300.705902 0.000000 0.000000 -89.951546 -128.212341 382.234833
[Bip01_Head]
19 259.028839 117.122932 0.083239 2.347898 4.999447 -56.907242 284.277557
20 259.848175 114.368118 -0.870043 2.317756 5.272972 -58.703392 283.904724
[eye_left_bone]
19 -24.626970 125.451866 -64.772606 0.000000 -90.000000 -99.840431 143.318359
20 -24.626970 125.451866 -64.772606 0.000000 -90.000000 -99.840431 143.318359
[eye_right_bone]
19 -24.626970 125.451866 64.327362 0.000000 -89.960434 80.159386 143.117676
20 -24.626970 125.451866 64.327362 0.000000 -89.960434 80.159386 143.117676
[L_forearm]
19 322.776093 0.000000 -0.000119 0.000771 0.002217 -51.662411 322.776093
20 322.776093 0.000000 -0.000119 0.000748 0.002225 -52.824692 322.776093
[L_front_hand]
19 241.149185 -0.042021 -3.300071 -179.549637 -2.221653 -2.896205 241.171753
20 241.149185 -0.042021 -3.300071 -179.656570 -2.241635 -0.193027 241.171753
[L_weapon_bone]
19 156.183838 0.000000 0.000000 0.001970 0.001276 24.151846 156.183838
20 156.183838 0.000000 0.000000 0.002014 0.001205 28.214180 156.183838
[L_front_hand01_01]
19 86.095154 20.947098 -0.655860 0.396653 -0.449474 -3.564719 88.609184
20 86.095154 20.947098 -0.655860 0.397195 -0.447301 -3.716460 88.609184
[L_front_hand02_01]
19 86.935165 -11.437475 24.513514 116.937729 2.697071 1.022569 91.046425
20 86.935165 -11.437475 24.513514 116.940056 2.824140 1.087864 91.046425
[L_front_hand03_01]
19 86.637497 -14.123976 -20.424902 -118.383614 -3.730564 -0.656324 90.126129
20 86.637497 -14.123976 -20.424902 -118.388725 -3.872368 -0.579409 90.126129
[L_front_hand01_02]
19 71.020905 -0.000179 0.000030 0.001534 0.001777 -8.378848 71.020905
20 71.020905 -0.000179 0.000030 0.001534 0.001777 -8.378850 71.020905
[L_front_hand02_02]
19 71.020927 -0.000119 0.000060 0.001534 0.001777 -8.378848 71.020927
20 71.020927 -0.000119 0.000060 0.001534 0.001777 -8.378850 71.020927
[L_front_hand03_02]
19 71.020905 -0.000060 0.000060 0.001534 0.001777 -8.378848 71.020905
20 71.020905 -0.000060 0.000060 0.001534 0.001777 -8.378850 71.020905
[R_forearm]
19 322.776428 -0.000060 0.000030 0.172498 -0.126318 -54.432011 322.776428
20 322.776428 -0.000060 0.000030 0.164855 -0.132715 -51.585754 322.776428
[R_front_hand]
19 238.847015 -0.006795 2.210259 -0.301544 1.701446 1.233735 238.857239
20 238.847015 -0.006795 2.210259 -0.429916 1.673311 -3.150352 238.857239
[R_weapon_bone]
19 155.664093 0.002503 -0.000030 0.003047 0.002065 -121.855072 155.664078
20 155.664093 0.002503 -0.000030 0.002958 0.002191 -126.655693 155.664078
[R_front_hand01_01]
19 87.624611 14.231146 22.918642 -116.939919 2.771879 -0.955413 91.683487
20 87.624611 14.231146 22.918642 -116.942101 2.871633 -1.004565 91.683487
[R_front_hand02_01]
19 89.356956 14.367283 -19.491137 118.395554 -3.542691 0.997025 92.579636
20 89.356956 14.367283 -19.491137 118.398651 -3.639864 0.943500 92.579636
[R_front_hand03_01]
19 87.286232 -22.307278 -0.143439 -0.386449 -0.239180 3.410582 90.091743
20 87.286232 -22.307278 -0.143439 -0.386716 -0.238746 3.539222 90.091743
[R_front_hand01_02]
19 71.020905 0.000060 0.000119 0.001777 0.001534 8.377220 71.020905
20 71.020905 0.000060 0.000119 0.001777 0.001534 8.377220 71.020905
[R_front_hand02_02]
19 71.020844 -0.000030 -0.000119 0.001777 0.001534 8.377220 71.020836
20 71.020844 -0.000030 -0.000119 0.001777 0.001534 8.377220 71.020836
[R_front_hand03_02]
19 71.020905 0.000000 0.000030 0.001777 0.001534 8.377220 71.020905
20 71.020905 0.000000 0.000030 0.001777 0.001534 8.377220 71.020905
[null_rope01_connect]
19 328.732483 0.000000 -0.000238 -141.415710 -51.373211 -178.039886 328.732483
20 328.732483 0.000000 -0.000238 -140.797379 -51.583759 177.582336 328.732483
[Rope1_Seg01]
19 0.000076 0.000000 0.000000 92.966415 75.860222 108.309631 0.000076
20 0.000072 0.000000 0.000000 125.731445 66.236916 147.508194 0.000072
[Rope1_Seg02]
19 139.999863 -0.000179 0.000000 -1.474804 -7.059425 40.251354 139.999863
20 139.999863 -0.000179 0.000000 -6.073917 -18.206789 34.777744 139.999863
[Rope1_Seg03]
19 139.999924 0.000060 -0.000060 5.778150 0.051967 16.436794 139.999924
20 139.999924 0.000060 -0.000060 2.925868 -7.388351 20.070713 139.999924
[Rope1_Seg04]
19 139.999924 -0.000060 -0.000119 -4.375663 -12.372809 8.382938 139.999924
20 139.999924 -0.000060 -0.000119 -2.759505 -9.558054 7.669311 139.999924
[Rope1_Seg05]
19 139.999832 0.000119 -0.000060 -12.192499 -14.297464 4.940441 139.999832
20 139.999832 0.000119 -0.000060 -10.979098 -12.116832 3.139050 139.999832
[Rope1_Seg06]
19 139.999954 0.000119 -0.000060 -7.695546 -6.565750 1.769418 139.999954
20 139.999954 0.000119 -0.000060 -8.497753 -6.890183 1.219669 139.999954
[Rope1_Seg07]
19 139.999985 0.000060 0.000000 -6.700387 -4.275321 0.584207 139.999985
20 139.999985 0.000060 0.000000 -6.626740 -4.254806 0.342297 139.999985
[Rope1_Seg09]
19 121.602913 0.000119 -0.000089 -38.366253 -1.358633 0.846264 121.602913
20 121.602913 0.000119 -0.000089 -89.790634 -1.359656 0.847385 121.602913
[L_mid_hand01]
19 103.859421 1.038730 8.195221 113.367805 -51.315094 -19.170935 104.187431
20 103.859421 1.038730 8.195221 130.544373 -67.584534 -38.866943 104.187431
[L_mid_hand02]
19 105.572853 -4.139662 -10.864139 -153.542160 37.220623 -49.959000 106.211075
20 105.572853 -4.139662 -10.864139 -168.923172 43.409309 -73.498894 106.211075
[L_mid_hand03]
19 104.641464 17.579376 -3.913581 -11.549893 14.892899 55.408459 106.179977
20 104.641464 17.579376 -3.913581 -6.012629 17.808178 74.893669 106.179977
[null_rope02_connect]
19 328.732849 0.000179 -0.000119 -127.881760 49.984940 9.510617 328.732849
20 328.732849 0.000179 -0.000119 -127.009651 46.808540 13.038647 328.732849
[Rope2_Seg01]
19 0.000095 0.000153 0.000038 -80.862610 34.341507 -4.889362 0.000184
20 0.000095 0.000153 0.000040 -92.082191 47.684311 -1.306482 0.000184
[Rope2_Seg02]
19 139.999741 -0.000060 -0.000119 -0.471313 -24.694424 9.334192 139.999756
20 139.999741 -0.000060 -0.000119 8.933304 -28.929424 -2.926839 139.999756
[Rope2_Seg03]
19 140.000107 0.000030 0.000000 -4.056983 -31.126532 14.921834 140.000107
20 140.000107 0.000030 0.000000 2.293202 -28.009754 -2.522967 140.000107
[Rope2_Seg04]
19 139.999802 0.000000 -0.000060 -2.641630 -23.057869 7.911914 139.999802
20 139.999802 0.000000 -0.000060 -2.257247 -21.674011 6.969645 139.999802
[Rope2_Seg05]
19 139.999985 -0.000060 0.000119 -1.994143 -8.406998 1.041053 139.999985
20 139.999985 -0.000060 0.000119 0.592115 -9.415377 6.039769 139.999985
[Rope2_Seg06]
19 139.999893 -0.000030 -0.000119 -0.911652 -3.560381 0.569365 139.999893
20 139.999893 -0.000030 -0.000119 0.037198 -3.823202 1.900700 139.999893
[Rope2_Seg07]
19 139.999893 0.000060 -0.000060 -0.583334 -2.083823 0.343694 139.999893
20 139.999893 0.000060 -0.000060 -0.033247 -2.218877 1.036155 139.999893
[Rope2_Seg09]
19 121.338966 0.000089 -0.000060 33.791557 -1.359404 -0.845402 121.338966
20 121.338966 0.000089 -0.000060 36.776443 -1.315064 -0.914943 121.338966
[R_mid_hand01]
19 104.680779 11.144459 -10.335981 -16.342342 45.197094 70.275391 105.778534
20 104.680779 11.144459 -10.335981 -16.511532 45.152599 70.040337 105.778534
[R_mid_hand02]
19 104.070427 2.443552 8.231699 49.299995 -67.645691 39.038990 104.424065
20 104.070427 2.443552 8.231699 49.564476 -67.515259 38.749912 104.424065
[R_mid_hand03]
19 106.028137 -11.221827 -5.996406 -177.060211 15.544970 -76.440033 106.788818
20 106.028137 -11.221827 -5.996406 -177.011765 15.534085 -76.261528 106.788818
[spine02]
19 129.756927 0.001550 0.000119 -0.199696 -4.112045 -5.058856 129.756927
20 129.756927 0.001550 0.000119 -0.209998 -4.089705 -4.913176 129.756927
[spine03]
19 78.742653 0.064837 -3.640963 1.118897 2.593798 2.574989 78.826813
20 78.718437 0.069040 -3.877362 0.975779 2.956683 0.937183 78.813904
[pelvis]
19 169.435242 0.051022 0.000000 0.005095 0.627904 -2.467877 169.435257
20 169.435242 0.051022 0.000000 0.002395 0.446912 -2.347714 169.435257
[null_rope03_connect]
19 -1.257226 -2.466202 137.391083 -145.816849 -89.405540 -109.388702 137.418976
20 -1.257226 -2.466202 137.391083 -130.855957 -89.335007 -122.820869 137.418976
[null_rope04_connect]
19 -1.259640 -2.480268 -137.844437 -145.816849 -89.405540 -109.388702 137.872513
20 -1.259640 -2.480268 -137.844437 -130.855957 -89.335007 -122.820869 137.872513
[Rope3_Seg01]
19 0.000010 0.000019 -0.000076 -163.563217 -34.349689 -27.633623 0.000079
20 0.000010 0.000018 -0.000072 -176.723846 -44.939156 -25.522654 0.000075
[Rope3_Seg02]
19 139.999924 -0.000119 0.000060 -4.615857 0.428504 -5.635816 139.999924
20 139.999924 -0.000119 0.000060 -5.793291 1.716346 -6.095420 139.999924
[Rope3_Seg03]
19 139.999924 -0.000119 0.000119 -11.255979 1.485595 -9.463915 139.999924
20 139.999924 -0.000119 0.000119 -12.889249 3.836115 -9.824445 139.999924
[Rope3_Seg04]
19 139.999924 0.000119 0.000000 -37.715611 6.442512 -17.406794 139.999924
20 139.999924 0.000119 0.000000 -29.327282 10.704247 -14.319011 139.999924
[Rope3_Seg05]
19 139.999924 -0.000238 0.000060 -47.623341 23.449957 -14.368603 139.999924
20 139.999924 -0.000238 0.000060 -30.557901 20.383787 -10.055449 139.999924
[Rope3_Seg06]
19 139.999893 -0.000119 -0.000060 -15.421432 28.700804 4.846523 139.999893
20 139.999893 -0.000119 -0.000060 -28.405556 44.601658 -7.917577 139.999893
[Rope3_Seg07]
19 139.999771 0.000060 -0.000119 -0.854675 32.697536 14.075757 139.999771
20 139.999771 0.000060 -0.000119 1.250962 32.463665 10.480717 139.999771
[Rope3_Seg08]
19 139.999985 -0.000060 0.000000 2.275916 14.065072 7.214628 139.999985
20 139.999985 -0.000060 0.000000 1.891145 8.874937 3.180089 139.999985
[Rope3_Seg09]
19 90.185997 -0.000179 -0.000060 78.127312 -1.360996 -0.847704 90.185997
20 90.185997 -0.000179 -0.000060 83.293953 -1.360024 -0.849867 90.185997
[R_rear_hand01]
19 103.366196 -6.073594 -10.757982 -156.049316 6.070419 -2.795869 104.101845
20 103.366196 -6.073594 -10.757982 -156.049316 6.070419 -2.795869 104.101845
[R_rear_hand02]
19 100.509819 12.039542 -7.992327 -38.708439 1.958052 5.461187 101.543350
20 100.509819 12.039542 -7.992327 -38.708424 1.958050 5.461185 101.543350
[R_rear_hand03]
19 101.539970 5.215704 5.435467 84.307625 -2.361032 4.099037 101.819031
20 101.539970 5.215704 5.435467 84.307625 -2.361032 4.099037 101.819031
[Rope4_Seg01]
19 -0.000014 -0.000019 -0.000114 50.851665 -49.463406 -100.529877 0.000117
20 -0.000015 -0.000024 -0.000117 46.379311 -54.185860 -93.637299 0.000120
[Rope4_Seg02]
19 139.999985 0.000060 0.000119 2.590663 -15.298985 1.645333 139.999985
20 139.999985 0.000060 0.000119 1.676269 -12.227026 3.553671 139.999985
[Rope4_Seg03]
19 139.999924 0.000000 -0.000238 24.781565 -42.433361 4.866683 139.999924
20 139.999924 0.000000 -0.000238 10.578765 -30.455038 9.571638 139.999924
[Rope4_Seg04]
19 139.999985 0.000000 0.000119 53.758526 -32.256855 25.509243 139.999985
20 139.999985 0.000000 0.000119 31.777964 -33.144314 17.378489 139.999985
[Rope4_Seg05]
19 139.999802 -0.000060 -0.000119 22.265564 12.970957 39.136002 139.999802
20 139.999802 -0.000060 -0.000119 25.719086 -4.163299 33.474670 139.999802
[Rope4_Seg06]
19 139.999924 0.000000 0.000060 2.888248 10.895388 14.336996 139.999924
20 139.999924 0.000000 0.000060 9.823109 12.967954 28.363127 139.999924
[Rope4_Seg07]
19 139.999802 0.000000 0.000000 0.292636 3.964619 5.254290 139.999802
20 139.999802 0.000000 0.000000 0.831123 4.991223 9.548841 139.999802
[Rope4_Seg08]
19 139.999924 0.000000 0.000119 -1.531144 1.991028 2.621877 139.999924
20 139.999924 0.000000 0.000119 -1.552792 2.333045 4.374104 139.999924
[Rope4_Seg09]
19 90.185791 0.000060 0.000060 -117.765099 2.228906 0.850657 90.185791
20 90.185791 0.000060 0.000060 -120.700920 2.229198 0.849755 90.185791
[L_rear_hand01]
19 101.696655 -8.392275 -7.654577 -38.745255 -0.464767 176.402084 102.329041
20 101.696655 -8.392275 -7.654577 -38.741608 -0.836949 175.940109 102.329041
[L_rear_hand02]
19 102.726799 -1.568258 5.773216 84.316200 -0.009563 176.138824 102.900848
20 102.726799 -1.568258 5.773216 84.312576 0.579386 176.077972 102.900848
[L_rear_hand03]
19 104.552910 9.721220 -10.420293 -155.833755 -5.096705 -179.392380 105.519653
20 104.552910 9.721220 -10.420293 -155.882431 -5.338696 -178.849503 105.519653
